<svg xmlns="http://www.w3.org/2000/svg" width="32" height="32" viewBox="0 0 32 32" fill="none">
  <path d="M31.9906 16.0006C31.9906 24.0816 26.0022 30.7623 18.2229 31.8464C17.4955 31.9473 16.7513 32 15.9959 32C15.1239 32 14.2676 31.9305 13.4337 31.796C5.81688 30.5695 0 23.9638 0 16.0006C0 7.16393 7.16182 0 15.9947 0C24.8276 0 31.9906 7.16393 31.9906 16.0006Z" fill="#1877F2"/>
  <path d="M18.2235 12.8468V16.3324H22.5341L21.8515 21.0276H18.2235V31.8452C17.4961 31.9461 16.7519 31.9988 15.9965 31.9988C15.1246 31.9988 14.2683 31.9293 13.4344 31.7948V21.0276H9.45898V16.3324H13.4344V12.0676C13.4344 9.42182 15.5785 7.276 18.2246 7.276V7.27824C18.2325 7.27824 18.2392 7.276 18.2471 7.276H22.5352V11.3367H19.7332C18.9005 11.3367 18.2246 12.0127 18.2246 12.8457L18.2235 12.8468Z" fill="white"/>
</svg>