<svg xmlns="http://www.w3.org/2000/svg" width="25" height="24" viewBox="0 0 25 24" fill="none">
  <path d="M20.863 8.47L14.863 2.47C14.722 2.329 14.532 2.25 14.333 2.25H8.33301C5.91501 2.25 4.58301 3.582 4.58301 6V18C4.58301 20.418 5.91501 21.75 8.33301 21.75H17.333C19.751 21.75 21.083 20.418 21.083 18V9C21.083 8.801 21.004 8.61 20.863 8.47ZM15.083 4.811L18.522 8.25H17.333C15.756 8.25 15.083 7.577 15.083 6V4.811ZM17.333 20.25H8.33301C6.75601 20.25 6.08301 19.577 6.08301 18V6C6.08301 4.423 6.75601 3.75 8.33301 3.75H13.583V6C13.583 8.418 14.915 9.75 17.333 9.75H19.583V18C19.583 19.577 18.91 20.25 17.333 20.25ZM17.083 12C17.083 12.414 16.747 12.75 16.333 12.75H9.33301C8.91901 12.75 8.58301 12.414 8.58301 12C8.58301 11.586 8.91901 11.25 9.33301 11.25H16.333C16.747 11.25 17.083 11.586 17.083 12ZM14.083 16C14.083 16.414 13.747 16.75 13.333 16.75H9.33301C8.91901 16.75 8.58301 16.414 8.58301 16C8.58301 15.586 8.91901 15.25 9.33301 15.25H13.333C13.747 15.25 14.083 15.586 14.083 16Z" fill="black" fill-opacity="0.8"/>
</svg>