<svg xmlns="http://www.w3.org/2000/svg" width="32" height="32" viewBox="0 0 32 32" fill="none">
  <path fill-rule="evenodd" clip-rule="evenodd" d="M6.60433 3C6.62515 3 6.64604 3 6.667 3L25.3963 3C26.2856 2.99996 27.0458 2.99992 27.6534 3.07657C28.2977 3.15785 28.9206 3.34039 29.4321 3.82032C29.9527 4.30872 30.1595 4.91808 30.2503 5.55207C30.3338 6.13446 30.3337 6.85863 30.3337 7.68478L30.3337 8.72016C30.3337 9.3715 30.3337 9.93459 30.2851 10.4041C30.2327 10.9094 30.1184 11.3835 29.8437 11.8386C29.5711 12.2903 29.204 12.6181 28.7809 12.912C28.3823 13.1889 27.873 13.4756 27.2741 13.8127L23.3508 16.0213C22.4578 16.524 22.1468 16.705 21.9392 16.8852C21.4624 17.2992 21.1894 17.7584 21.0611 18.3338C21.0063 18.5798 21.0003 18.8896 21.0003 19.8306L21.0003 23.4733C21.0004 24.675 21.0005 25.6951 20.8768 26.4794C20.7453 27.3134 20.4401 28.1133 19.64 28.6137C18.8582 29.1027 17.997 29.0578 17.1601 28.859C16.354 28.6676 15.3607 28.2792 14.1688 27.8132L14.053 27.7679C13.4947 27.5497 13.0058 27.3586 12.6188 27.1588C12.2029 26.944 11.8166 26.6768 11.5211 26.2609C11.2222 25.8403 11.1024 25.3894 11.049 24.9284C11.0002 24.5081 11.0003 24.0035 11.0003 23.4408L11.0003 19.8306C11.0003 18.8896 10.9944 18.5798 10.9396 18.3338C10.8113 17.7584 10.5382 17.2992 10.0614 16.8852C9.85384 16.705 9.54289 16.524 8.64984 16.0213L4.7266 13.8127C4.12764 13.4756 3.61837 13.1889 3.21977 12.912C2.79665 12.6181 2.42954 12.2903 2.15695 11.8386C1.8823 11.3835 1.76793 10.9094 1.71559 10.4041C1.66694 9.93459 1.66697 9.3715 1.667 8.72016L1.667 7.75288C1.667 7.7301 1.667 7.70739 1.667 7.68476C1.66693 6.85861 1.66688 6.13445 1.75033 5.55207C1.84118 4.91808 2.048 4.30873 2.56856 3.82033C3.0801 3.34039 3.70293 3.15785 4.34731 3.07657C4.95489 2.99992 5.71508 2.99996 6.60433 3ZM4.5976 5.06084C4.15273 5.11696 4.01126 5.20921 3.93701 5.27888C3.87178 5.34007 3.78571 5.4478 3.73011 5.83577C3.66941 6.25939 3.667 6.83825 3.667 7.75288V8.67264C3.667 9.38492 3.66823 9.8437 3.70494 10.1981C3.73913 10.5281 3.79783 10.6868 3.86931 10.8052C3.94286 10.9271 4.065 11.064 4.36077 11.2695C4.6724 11.4859 5.09813 11.7268 5.7469 12.092L9.63094 14.2784C9.6673 14.2989 9.70313 14.3191 9.73842 14.3389C10.4834 14.758 10.9907 15.0434 11.3726 15.375C12.1611 16.0595 12.667 16.891 12.8916 17.8986C13.0008 18.3883 13.0006 18.9375 13.0004 19.7126C13.0003 19.7514 13.0003 19.7907 13.0003 19.8306V23.3899C13.0003 24.0194 13.0019 24.4067 13.0357 24.6982C13.0662 24.9618 13.1144 25.0504 13.1514 25.1025C13.1918 25.1593 13.2717 25.2451 13.5364 25.3817C13.8196 25.528 14.2098 25.6818 14.826 25.9227C16.1073 26.4236 16.9692 26.758 17.6222 26.9131C18.2604 27.0647 18.4706 26.9861 18.5794 26.918C18.67 26.8614 18.81 26.7462 18.9012 26.168C18.9974 25.5581 19.0003 24.6979 19.0003 23.3899V19.8306C19.0003 19.7907 19.0003 19.7514 19.0003 19.7127C19 18.9375 18.9999 18.3883 19.109 17.8986C19.3337 16.8909 19.8396 16.0595 20.6281 15.375C21.01 15.0434 21.5173 14.758 22.2622 14.3389C22.2975 14.3191 22.3333 14.2989 22.3697 14.2784L26.2538 12.092C26.9025 11.7268 27.3283 11.4859 27.6399 11.2695C27.9357 11.064 28.0578 10.9271 28.1314 10.8052C28.2028 10.6868 28.2615 10.5281 28.2957 10.1981C28.3324 9.8437 28.3337 9.38492 28.3337 8.67264V7.75288C28.3337 6.83825 28.3313 6.25939 28.2706 5.83577C28.215 5.4478 28.1289 5.34007 28.0637 5.27888C27.9894 5.20921 27.8479 5.11696 27.4031 5.06084C26.9356 5.00188 26.303 5 25.3337 5H6.667C5.69762 5 5.06505 5.00188 4.5976 5.06084Z" fill="#373A51"/>
</svg>