<svg xmlns="http://www.w3.org/2000/svg" width="32" height="32" viewBox="0 0 32 32" fill="none">
  <path d="M16.0219 0H15.9491C7.13526 0 -0.00976562 7.14713 -0.00976562 15.9636V16.0364C-0.00976562 24.8529 7.13526 32 15.9491 32H16.0219C24.8358 32 31.9808 24.8529 31.9808 16.0364V15.9636C31.9808 7.14713 24.8358 0 16.0219 0Z" fill="url(#paint0_linear_124_2705)"/>
  <path d="M20.9364 6.51025H11.0376C8.30288 6.51025 6.07812 8.73567 6.07812 11.4712V20.5298C6.07812 23.2653 8.30288 25.4907 11.0376 25.4907H20.9364C23.6711 25.4907 25.8959 23.2653 25.8959 20.5298V11.4712C25.8959 8.73567 23.6711 6.51025 20.9364 6.51025ZM7.82767 11.4712C7.82767 9.70095 9.26788 8.26032 11.0376 8.26032H20.9364C22.7061 8.26032 24.1463 9.70095 24.1463 11.4712V20.5298C24.1463 22.3 22.7061 23.7407 20.9364 23.7407H11.0376C9.26788 23.7407 7.82767 22.3 7.82767 20.5298V11.4712Z" fill="white"/>
  <path d="M15.9882 20.6139C18.5312 20.6139 20.6013 18.5443 20.6013 15.9994C20.6013 13.4545 18.5323 11.3849 15.9882 11.3849C13.444 11.3849 11.375 13.4545 11.375 15.9994C11.375 18.5443 13.444 20.6139 15.9882 20.6139ZM15.9882 13.1361C17.5673 13.1361 18.8518 14.4209 18.8518 16.0005C18.8518 17.5802 17.5673 18.865 15.9882 18.865C14.409 18.865 13.1245 17.5802 13.1245 16.0005C13.1245 14.4209 14.409 13.1361 15.9882 13.1361Z" fill="white"/>
  <path d="M21.0281 12.1303C21.7129 12.1303 22.2711 11.5731 22.2711 10.887C22.2711 10.2009 21.714 9.64368 21.0281 9.64368C20.3422 9.64368 19.7852 10.2009 19.7852 10.887C19.7852 11.5731 20.3422 12.1303 21.0281 12.1303Z" fill="white"/>
  <defs>
    <linearGradient id="paint0_linear_124_2705" x1="4.66391" y1="27.3249" x2="27.3138" y2="4.68284" gradientUnits="userSpaceOnUse">
      <stop stop-color="#FAAD4F"/>
      <stop offset="0.35" stop-color="#DD2A7B"/>
      <stop offset="0.62" stop-color="#9537B0"/>
      <stop offset="1" stop-color="#515BD4"/>
    </linearGradient>
  </defs>
</svg>