<svg xmlns="http://www.w3.org/2000/svg" width="24" height="24" viewBox="0 0 24 24" fill="none">
  <path d="M15.7281 3.8839C17.1624 2.44401 19.2604 2.41377 20.4219 3.57974C21.5856 4.74792 21.5542 6.85916 20.1189 8.30003L17.6951 10.7333C17.4028 11.0267 17.4037 11.5016 17.6971 11.7939C17.9906 12.0863 18.4655 12.0853 18.7578 11.7919L21.1816 9.35863C23.0929 7.43992 23.3329 4.37659 21.4846 2.52114C19.6342 0.66349 16.5776 0.905603 14.6653 2.8253L9.81768 7.69176C7.90639 9.61047 7.66643 12.6738 9.5147 14.5293C9.80702 14.8227 10.2819 14.8237 10.5754 14.5313C10.8688 14.239 10.8697 13.7641 10.5774 13.4707C9.41376 12.3025 9.4451 10.1912 10.8804 8.75036L15.7281 3.8839Z" fill="#333333"/>
  <path d="M14.4846 9.47068C14.1923 9.17722 13.7174 9.1763 13.4239 9.46862C13.1305 9.76095 13.1296 10.2358 13.4219 10.5293C14.5856 11.6975 14.5542 13.8087 13.1189 15.2496L8.27129 20.1161C6.83696 21.5559 4.73889 21.5862 3.57742 20.4202C2.41376 19.252 2.4451 17.1408 3.8804 15.6999L6.30424 13.2666C6.59657 12.9732 6.59565 12.4983 6.30219 12.206C6.00873 11.9136 5.53386 11.9146 5.24153 12.208L2.81769 14.6413C0.906387 16.56 0.666428 19.6234 2.5147 21.4788C4.36518 23.3365 7.42173 23.0944 9.334 21.1747L14.1816 16.3082C16.0929 14.3894 16.3329 11.3261 14.4846 9.47068Z" fill="#333333"/>
</svg>