<svg width="323" height="88" viewBox="0 0 323 88" fill="none" xmlns="http://www.w3.org/2000/svg">
<g clip-path="url(#clip0_2070_615)">
<path d="M101.445 74.2825H99.1875V73.0578H105.044V74.2825H102.787V81.0188H101.445V74.2825Z" fill="#231F20"/>
<path d="M108.399 75.4461V76.8546C108.277 76.8546 108.094 76.8546 108.033 76.8546C107.118 76.8546 106.569 77.5282 106.569 78.4468V81.0188H105.349V75.5685H106.569V76.3646C106.996 75.8135 107.606 75.4461 108.277 75.4461H108.399Z" fill="#231F20"/>
<path d="M114.255 75.5073V80.9575H113.035V80.2227C112.608 80.7738 111.998 81.0188 111.388 81.0188C110.168 81.0188 109.375 80.4064 109.375 78.8142V75.5073H110.595V78.508C110.595 79.6103 110.9 79.9165 111.693 79.9165C112.425 79.9165 113.096 79.3041 113.096 78.1406V75.5073H114.255Z" fill="#231F20"/>
<path d="M120.904 77.7731V80.9575H119.684V78.0793C119.684 76.9158 119.257 76.5484 118.525 76.5484C117.671 76.5484 117.122 77.1607 117.122 78.2018V80.9575H115.902V75.5073H117.122V76.2422C117.549 75.691 118.22 75.3848 118.952 75.3848C120.111 75.4461 120.904 76.1197 120.904 77.7731Z" fill="#231F20"/>
<path d="M127.614 75.5073V80.4064C127.614 82.0599 126.882 83.2234 124.869 83.2234C124.076 83.2234 123.283 83.0397 122.673 82.6722L122.978 81.5699C123.588 81.8761 124.015 82.1211 124.808 82.1211C125.845 82.1211 126.394 81.5087 126.394 80.7738V80.2227C125.967 80.6514 125.418 80.8963 124.747 80.8963C123.222 80.8963 122.124 79.8553 122.124 78.2018C122.124 76.6096 123.222 75.4461 124.686 75.4461C125.296 75.4461 125.906 75.691 126.394 76.1197V75.5685H127.614V75.5073ZM126.394 78.1406C126.394 77.222 125.723 76.6096 124.869 76.6096C123.954 76.6096 123.344 77.2832 123.344 78.2018C123.344 79.1816 124.015 79.794 124.869 79.794C125.784 79.7328 126.394 79.0592 126.394 78.1406Z" fill="#231F20"/>
<path d="M132.25 79.2429V76.5484H131.579V75.5073H132.25V73.7314L133.47 73.6089V75.5686H135.056V76.6096H133.47V79.1816C133.47 79.7328 133.653 79.9165 134.019 79.9165C134.202 79.9165 134.507 79.8553 134.812 79.6715L135.117 80.7738C134.812 80.9576 134.446 81.08 133.714 81.08C132.799 81.08 132.25 80.4676 132.25 79.2429Z" fill="#231F20"/>
<path d="M141.156 75.5073V80.9576H139.997V80.2227C139.631 80.7738 139.021 81.0188 138.289 81.0188C136.764 81.0188 135.666 79.9165 135.666 78.2018C135.666 76.5484 136.764 75.3848 138.289 75.3848C138.96 75.3848 139.57 75.6298 139.936 76.1197V75.4461H141.156V75.5073ZM137.923 74.7724H136.703L137.984 73.119H139.082L140.363 74.7724H139.143L138.533 73.9151L137.923 74.7724ZM139.997 78.2631C139.997 77.2832 139.326 76.5484 138.472 76.5484C137.618 76.5484 136.947 77.222 136.947 78.2631C136.947 79.2429 137.557 79.9165 138.472 79.9165C139.265 79.9165 139.997 79.2429 139.997 78.2631Z" fill="#231F20"/>
<path d="M151.16 77.8344V80.9575H149.94V78.1406C149.94 77.1607 149.635 76.6096 148.903 76.6096C148.232 76.6096 147.622 77.222 147.622 78.263V80.9575H146.402V78.1406C146.402 77.1607 146.036 76.6096 145.304 76.6096C144.572 76.6096 144.023 77.222 144.023 78.263V80.9575H142.803V75.5073H144.023V76.2422C144.45 75.691 145.06 75.3848 145.731 75.3848C146.463 75.3848 147.012 75.691 147.378 76.3034C147.805 75.691 148.537 75.3848 149.33 75.3848C150.489 75.4461 151.16 76.1809 151.16 77.8344Z" fill="#231F20"/>
<path d="M155.857 73.0578H158.724C160.616 73.0578 161.409 74.1601 161.409 75.6298C161.409 77.3445 160.249 78.1406 158.541 78.1406H157.199V80.9576H155.857V73.0578ZM158.419 76.9158C159.517 76.9158 160.005 76.3647 160.005 75.5685C160.005 74.7112 159.456 74.2213 158.48 74.2213H157.138V76.9158H158.419Z" fill="#231F20"/>
<path d="M167.814 77.7119V80.9576H166.594V78.0181C166.594 76.9158 166.167 76.5484 165.435 76.5484C164.52 76.5484 163.971 77.0995 163.971 78.2018V80.9576H162.75V72.7516H163.971V76.1809C164.398 75.691 165.069 75.3848 165.801 75.3848C166.96 75.4461 167.814 76.0585 167.814 77.7119Z" fill="#231F20"/>
<path d="M174.524 75.5073V80.9575H173.365V80.2227C172.999 80.7738 172.389 81.0188 171.657 81.0188C170.132 81.0188 169.034 79.9165 169.034 78.2018C169.034 76.5484 170.132 75.3848 171.657 75.3848C172.328 75.3848 172.938 75.6298 173.304 76.1197V75.4461H174.524V75.5073ZM173.365 78.2631C173.365 77.2832 172.694 76.5484 171.84 76.5484C170.986 76.5484 170.315 77.222 170.315 78.2631C170.315 79.2429 170.925 79.9165 171.84 79.9165C172.633 79.9165 173.365 79.2429 173.365 78.2631ZM172.328 74.7724H171.047L172.328 73.1802H173.67L172.328 74.7724Z" fill="#231F20"/>
<path d="M176.171 79.2429V76.5484H175.5V75.5073H176.171V73.7314L177.391 73.6089V75.5686H178.977V76.6096H177.391V79.1816C177.391 79.7328 177.574 79.9165 177.94 79.9165C178.123 79.9165 178.428 79.8553 178.733 79.6715L179.038 80.7738C178.733 80.9576 178.367 81.08 177.635 81.08C176.781 81.08 176.171 80.4676 176.171 79.2429Z" fill="#231F20"/>
<path d="M183.247 79.2429V76.5484H182.576V75.5073H183.247V73.7314L184.467 73.6089V75.5686H186.053V76.6096H184.467V79.1816C184.467 79.7328 184.65 79.9165 185.016 79.9165C185.199 79.9165 185.504 79.8553 185.809 79.6715L186.114 80.7738C185.809 80.9576 185.443 81.08 184.711 81.08C183.796 81.08 183.247 80.4676 183.247 79.2429Z" fill="#231F20"/>
<path d="M190.262 75.4461V76.8546C190.14 76.8546 189.957 76.8546 189.896 76.8546C188.981 76.8546 188.432 77.5282 188.432 78.4468V81.0188H187.212V75.5685H188.432V76.3646C188.859 75.8135 189.469 75.4461 190.14 75.4461H190.262Z" fill="#231F20"/>
<path d="M191.177 73.9151C191.177 73.4864 191.543 73.119 192.031 73.119C192.519 73.119 192.885 73.4864 192.885 73.9151C192.885 74.3438 192.519 74.7724 192.031 74.7724C191.543 74.7724 191.177 74.3438 191.177 73.9151ZM191.36 75.5073H192.58V80.9576H191.36V75.5073Z" fill="#231F20"/>
<path d="M199.29 78.2018C199.29 78.3855 199.29 78.6305 199.229 78.6917H195.264C195.447 79.4878 195.996 79.9165 196.789 79.9165C197.399 79.9165 197.887 79.6103 198.131 79.3041L198.985 80.039C198.558 80.6514 197.765 81.08 196.667 81.08C195.081 81.08 193.922 79.9777 193.922 78.2631C193.922 76.6096 195.081 75.4461 196.545 75.4461C198.253 75.4461 199.29 76.6096 199.29 78.2018ZM196.118 74.7724H194.898L196.179 73.119H197.277L198.558 74.7724H197.338L196.728 73.9151L196.118 74.7724ZM195.325 77.6507H198.009C197.826 76.977 197.399 76.5484 196.728 76.5484C195.996 76.5484 195.508 76.977 195.325 77.6507ZM199.778 72.874C199.778 73.3027 199.412 73.6701 198.863 73.7926L198.741 74.0988H198.253C198.131 73.9763 198.07 73.9151 198.07 73.7926C198.07 73.4252 198.924 73.364 198.924 72.9353C198.924 72.8128 198.802 72.6903 198.619 72.6903C198.314 72.6903 198.009 72.8128 197.826 73.0578L197.338 72.5678C197.643 72.2617 198.192 72.0167 198.68 72.0167C199.412 72.0167 199.778 72.3841 199.778 72.874Z" fill="#231F20"/>
<path d="M205.634 77.7731V80.9575H204.414V78.0793C204.414 76.9158 203.987 76.5484 203.255 76.5484C202.401 76.5484 201.852 77.1607 201.852 78.2018V80.9575H200.632V75.5073H201.852V76.2422C202.279 75.691 202.95 75.3848 203.682 75.3848C204.841 75.4461 205.634 76.1197 205.634 77.7731Z" fill="#231F20"/>
<path d="M216.797 73.0578V80.9576H215.455L211.612 75.3236V80.9576H210.27V73.0578H211.612L215.455 78.753V73.0578H216.797Z" fill="#231F20"/>
<path d="M223.691 77.7119V80.9576H222.471V78.0181C222.471 76.9158 222.043 76.5484 221.311 76.5484C220.396 76.5484 219.847 77.0995 219.847 78.2018V80.9576H218.627V72.7516H219.847V76.1809C220.274 75.691 220.945 75.3848 221.677 75.3848C222.898 75.4461 223.691 76.0585 223.691 77.7119Z" fill="#231F20"/>
<path d="M230.462 75.5073V80.9576H229.303V80.2227C228.937 80.7738 228.326 81.0188 227.594 81.0188C226.069 81.0188 224.971 79.9165 224.971 78.2018C224.971 76.5484 226.069 75.3848 227.594 75.3848C228.265 75.3848 228.875 75.6298 229.242 76.1197V75.4461H230.462V75.5073ZM227.167 74.7724H225.947L227.228 73.119H228.326L229.608 74.7724H228.387L227.777 73.9151L227.167 74.7724ZM229.242 78.2631C229.242 77.2832 228.57 76.5484 227.716 76.5484C226.862 76.5484 226.191 77.222 226.191 78.2631C226.191 79.2429 226.801 79.9165 227.716 79.9165C228.57 79.9165 229.242 79.2429 229.242 78.2631Z" fill="#231F20"/>
<path d="M237.111 77.7731V80.9575H235.891V78.0793C235.891 76.9158 235.464 76.5484 234.732 76.5484C233.878 76.5484 233.329 77.1607 233.329 78.2018V80.9575H232.109V75.5073H233.329V76.2422C233.756 75.691 234.427 75.3848 235.159 75.3848C236.318 75.4461 237.111 76.1197 237.111 77.7731Z" fill="#231F20"/>
<path d="M241.686 72.7516H242.906V80.9576H241.686V72.7516Z" fill="#231F20"/>
<path d="M251.324 74.65V75.4461C251.324 76.6708 250.714 77.5282 249.494 77.5894V80.9576H248.274V80.2227C247.847 80.7738 247.237 81.0188 246.627 81.0188C245.407 81.0188 244.614 80.4064 244.614 78.8142V75.5073H245.834V78.508C245.834 79.6103 246.139 79.9165 246.932 79.9165C247.664 79.9165 248.335 79.3041 248.335 78.1406V75.5073H249.555V76.7321C250.165 76.5484 250.165 75.9972 250.165 75.3848V74.65H251.324ZM247.847 82.856C247.847 83.2846 247.481 83.6521 246.993 83.6521C246.505 83.6521 246.139 83.2846 246.139 82.856C246.139 82.4273 246.505 81.9986 246.993 81.9986C247.481 81.9986 247.847 82.4273 247.847 82.856Z" fill="#231F20"/>
<path d="M251.629 78.2631C251.629 76.6096 252.788 75.4461 254.435 75.4461C255.289 75.4461 256.143 75.8135 256.692 76.4871L255.838 77.222C255.533 76.8546 255.045 76.6096 254.496 76.6096C253.52 76.6096 252.91 77.2832 252.91 78.2631C252.91 79.2429 253.581 79.9165 254.496 79.9165C255.106 79.9165 255.594 79.6715 255.899 79.3653L256.753 80.1002C256.265 80.6514 255.472 81.08 254.435 81.08C252.788 81.08 251.629 79.9165 251.629 78.2631Z" fill="#231F20"/>
<path d="M260.413 80.2839L261.023 79.3653C261.45 79.794 261.938 79.9777 262.609 79.9777C263.097 79.9777 263.341 79.794 263.341 79.4266C263.341 79.1204 262.975 78.9979 262.304 78.753C261.389 78.4468 260.657 78.0181 260.657 76.977C260.657 76.0585 261.45 75.4461 262.548 75.4461C263.219 75.4461 263.829 75.6298 264.439 76.1197L263.829 77.0995C263.402 76.6708 262.914 76.5484 262.487 76.5484C262.243 76.5484 261.877 76.6708 261.877 77.0383C261.877 77.2832 262.182 77.4669 262.731 77.7119C263.89 78.1406 264.622 78.3855 264.622 79.4878C264.622 80.4064 263.951 81.1413 262.609 81.1413C261.694 81.08 260.962 80.7738 260.413 80.2839Z" fill="#231F20"/>
<path d="M271.149 78.263C271.149 79.9165 269.99 81.08 268.282 81.08C266.574 81.08 265.415 79.8553 265.415 78.263C265.415 76.6708 266.574 75.4461 268.282 75.4461C269.99 75.4461 271.149 76.6096 271.149 78.263ZM267.672 74.7724H266.452L267.733 73.119H268.831L270.112 74.7724H268.892L268.282 73.9151L267.672 74.7724ZM269.868 78.263C269.868 77.2832 269.197 76.6096 268.282 76.6096C267.367 76.6096 266.696 77.3445 266.696 78.263C266.696 79.1816 267.367 79.9165 268.282 79.9165C269.197 79.9165 269.868 79.2429 269.868 78.263ZM270.539 73.7926H269.624L270.905 72.2004H272.247L270.539 73.7926Z" fill="#231F20"/>
<path d="M282.007 73.0578L279.079 80.9576H277.92L274.992 73.0578H276.456L278.53 79.0592L280.604 73.0578H282.007Z" fill="#231F20"/>
<path d="M282.861 73.9151C282.861 73.4864 283.227 73.119 283.715 73.119C284.203 73.119 284.569 73.4864 284.569 73.9151C284.569 74.3438 284.203 74.7724 283.715 74.7724C283.227 74.7724 282.861 74.3438 282.861 73.9151ZM283.105 75.5073H284.325V80.9576H283.105V75.5073Z" fill="#231F20"/>
<path d="M290.975 78.6917H287.01C287.193 79.4878 287.742 79.9165 288.535 79.9165C289.145 79.9165 289.633 79.6103 289.877 79.3041L290.731 80.039C290.304 80.6514 289.511 81.08 288.413 81.08C286.826 81.08 285.667 79.9777 285.667 78.2631C285.667 76.6096 286.827 75.4461 288.291 75.4461C289.877 75.4461 290.914 76.6096 290.914 78.2018C290.975 78.3855 290.975 78.5692 290.975 78.6917ZM287.803 74.7724H286.582L287.864 73.119H288.962L290.243 74.7724H289.023L288.413 73.9151L287.803 74.7724ZM287.01 77.6507H289.694C289.511 76.977 289.084 76.5484 288.413 76.5484C287.742 76.5484 287.193 76.977 287.01 77.6507ZM289.328 82.856C289.328 83.2846 288.962 83.6521 288.474 83.6521C287.986 83.6521 287.62 83.2846 287.62 82.856C287.62 82.4273 287.986 81.9986 288.474 81.9986C288.962 81.9986 289.328 82.4273 289.328 82.856Z" fill="#231F20"/>
<path d="M292.378 79.2429V76.5484H291.707V75.5073H292.378V73.7314L293.598 73.6089V75.5686H295.184V76.6096H293.598V79.1816C293.598 79.7328 293.781 79.9165 294.147 79.9165C294.33 79.9165 294.635 79.8553 294.94 79.6715L295.245 80.7738C294.94 80.9576 294.574 81.08 293.842 81.08C292.927 81.08 292.378 80.4676 292.378 79.2429Z" fill="#231F20"/>
<path d="M305.981 73.0578V80.9576H304.639L300.796 75.3236V80.9576H299.454V73.0578H300.796L304.639 78.753V73.0578H305.981Z" fill="#231F20"/>
<path d="M312.996 75.5073V80.9575H311.837V80.2227C311.471 80.7738 310.861 81.0188 310.129 81.0188C308.604 81.0188 307.506 79.9165 307.506 78.2018C307.506 76.5484 308.604 75.3848 310.129 75.3848C310.8 75.3848 311.41 75.6298 311.776 76.1197V75.4461H312.996V75.5073ZM311.776 78.263C311.776 77.2832 311.105 76.5484 310.251 76.5484C309.397 76.5484 308.726 77.222 308.726 78.263C308.726 79.2429 309.336 79.9165 310.251 79.9165C311.105 79.9165 311.776 79.2429 311.776 78.263Z" fill="#231F20"/>
<path d="M323 77.8344V80.9575H321.78V78.1406C321.78 77.1607 321.475 76.6096 320.743 76.6096C320.072 76.6096 319.462 77.222 319.462 78.263V80.9575H318.242V78.1406C318.242 77.1607 317.876 76.6096 317.144 76.6096C316.412 76.6096 315.863 77.222 315.863 78.263V80.9575H314.643V75.5073H315.863V76.2422C316.29 75.691 316.9 75.3848 317.571 75.3848C318.303 75.3848 318.852 75.691 319.218 76.3034C319.645 75.691 320.377 75.3848 321.17 75.3848C322.268 75.4461 323 76.1809 323 77.8344Z" fill="#231F20"/>
<path d="M108.643 27.0063H117.061L123.832 46.7864L125.174 51.8079H125.662L127.126 46.7864L134.263 27.0063H142.681L129.566 63.0146H121.331L108.643 27.0063Z" fill="#036799"/>
<path d="M153.356 27.0063H161.164V63.0146H153.356V27.0063Z" fill="#036799"/>
<path d="M174.89 27.0063H187.578C190.445 27.0063 193.007 27.4349 195.325 28.2923C197.643 29.1496 199.595 30.3744 201.181 31.9666C202.767 33.5588 203.987 35.4572 204.841 37.6618C205.695 39.8664 206.122 42.3159 206.122 45.0104C206.122 47.7049 205.695 50.1545 204.841 52.3591C203.987 54.5637 202.767 56.4621 201.181 58.0543C199.595 59.6465 197.643 60.8713 195.325 61.7286C193.007 62.5859 190.445 63.0146 187.578 63.0146H174.89V27.0063ZM187.151 55.5435C189.103 55.5435 190.75 55.2985 192.153 54.7474C193.556 54.2575 194.715 53.5226 195.63 52.5428C196.545 51.6242 197.216 50.4607 197.643 49.1747C198.07 47.8887 198.314 46.4802 198.314 44.9492C198.314 43.4182 198.07 42.0097 197.643 40.7237C197.216 39.4377 196.545 38.3354 195.63 37.3556C194.715 36.437 193.556 35.7022 192.153 35.151C190.75 34.6611 189.103 34.3549 187.151 34.3549H182.698V55.4823H187.151V55.5435Z" fill="#036799"/>
<path d="M218.139 27.0063H225.947V63.0146H218.139V27.0063Z" fill="#036799"/>
<path d="M270.661 57.1969C267.001 61.6061 262.182 63.8107 256.265 63.8107C253.581 63.8107 251.08 63.3208 248.823 62.341C246.505 61.3612 244.553 60.0139 242.845 58.3605C241.137 56.6458 239.856 54.6862 238.88 52.4203C237.904 50.1545 237.416 47.7049 237.416 45.0104C237.416 42.3772 237.904 39.9276 238.88 37.6006C239.856 35.3347 241.198 33.3138 242.845 31.6604C244.553 29.9457 246.505 28.6597 248.823 27.6799C251.141 26.7001 253.642 26.2102 256.265 26.2102C259.193 26.2102 261.755 26.7001 263.89 27.7411C266.025 28.7822 267.977 30.1907 269.746 32.0891L264.317 37.4168C263.402 36.3145 262.243 35.4572 260.962 34.7223C259.681 33.9875 258.095 33.62 256.326 33.62C254.74 33.62 253.276 33.865 251.934 34.4161C250.592 34.9673 249.433 35.7022 248.396 36.7432C247.42 37.723 246.627 38.9478 246.017 40.3563C245.468 41.7648 245.163 43.2958 245.163 45.0104C245.163 46.7251 245.468 48.2561 246.017 49.6646C246.566 51.0731 247.359 52.2366 248.396 53.2777C249.372 54.2575 250.592 55.0536 251.934 55.6047C253.276 56.1559 254.74 56.4008 256.326 56.4008C258.217 56.4008 259.864 56.0334 261.267 55.2373C262.67 54.4412 263.951 53.3389 265.049 51.9304L270.661 57.1969Z" fill="#036799"/>
<path d="M313.545 57.1969C309.885 61.6061 305.066 63.8107 299.149 63.8107C296.465 63.8107 293.964 63.3208 291.707 62.341C289.388 61.3612 287.436 60.0139 285.728 58.3605C284.02 56.6458 282.739 54.6862 281.763 52.4203C280.787 50.1545 280.299 47.7049 280.299 45.0104C280.299 42.3772 280.787 39.9276 281.763 37.6006C282.739 35.3347 284.081 33.3138 285.728 31.6604C287.436 29.9457 289.388 28.6597 291.707 27.6799C294.025 26.7001 296.526 26.2102 299.149 26.2102C302.077 26.2102 304.639 26.7001 306.774 27.7411C308.909 28.7822 310.861 30.1907 312.63 32.0891L307.201 37.4168C306.286 36.3145 305.127 35.4572 303.846 34.7223C302.565 33.9875 300.979 33.62 299.21 33.62C297.624 33.62 296.16 33.865 294.818 34.4161C293.476 34.9673 292.317 35.7022 291.279 36.7432C290.303 37.723 289.51 38.9478 288.9 40.3563C288.351 41.7648 288.046 43.2958 288.046 45.0104C288.046 46.7251 288.351 48.2561 288.9 49.6646C289.449 51.0731 290.242 52.2366 291.279 53.2777C292.256 54.2575 293.476 55.0536 294.818 55.6047C296.16 56.1559 297.624 56.4008 299.21 56.4008C301.101 56.4008 302.748 56.0334 304.151 55.2373C305.554 54.4412 306.835 53.3389 307.933 51.9304L313.545 57.1969Z" fill="#036799"/>
<path d="M85.4014 54.6249C87.4755 52.6653 90.4645 49.3584 92.7825 44.5205C94.4906 40.8462 95.2226 37.4781 95.5886 35.0285C92.1115 30.7418 73.1402 9.06333 41.9688 27.19C44.4088 26.7001 58.256 24.3118 71.0052 33.4363C81.4974 40.9074 84.6084 51.563 85.4014 54.6249Z" fill="url(#paint0_linear_2070_615)"/>
<path d="M51.6067 84.0195C54.1077 85.3667 58.1948 87.1427 63.5019 87.7551C67.5279 88.1837 70.944 87.8163 73.384 87.3264C76.3121 82.6722 90.6473 57.6868 63.5629 33.8038C64.7829 35.9471 71.493 48.3173 66.9789 63.382C63.3189 75.8747 54.2297 82.3048 51.6067 84.0195Z" fill="url(#paint1_linear_2070_615)"/>
<path d="M13.3593 66.0766C13.1153 68.8935 13.1153 73.364 14.6403 78.5692C15.7993 82.4885 17.5073 85.4892 18.9103 87.5101C24.3394 88.3674 52.8879 91.6743 63.9291 57.2582C62.404 59.2791 53.8029 70.3633 38.2476 72.1392C25.4374 73.6089 15.9823 67.7912 13.3593 66.0766Z" fill="url(#paint2_linear_2070_615)"/>
<path d="M20.0083 20.4537C17.2023 20.6987 12.8102 21.4948 7.99112 23.9443C4.39207 25.7815 1.76903 28.0473 0 29.762C0.122002 35.2735 1.95203 64.0557 37.6376 68.8935C35.4416 67.7912 22.9974 61.1775 18.4833 46.174C14.7622 33.7425 18.7883 23.3932 20.0083 20.4537Z" fill="url(#paint3_linear_2070_615)"/>
<path d="M65.7591 17.453C64.844 14.7585 63.136 10.6555 59.659 6.4913C57.0359 3.42937 54.2909 1.34725 52.2168 0C46.9098 1.34725 19.3983 9.67571 22.7534 45.6841C23.3634 43.2345 26.9015 29.6395 40.4437 21.801C51.7288 15.3097 62.709 16.9019 65.7591 17.453Z" fill="url(#paint4_linear_2070_615)"/>
<path d="M61.794 45.0104C60.2079 35.5184 51.3018 29.1496 41.8467 30.7418C32.4525 32.334 26.1084 41.2749 27.6944 50.7669C29.2805 60.1976 38.1866 66.5665 47.6418 64.9743C57.0359 63.382 63.38 54.4412 61.794 45.0104ZM31.7815 46.7864C30.5005 45.8678 30.1955 44.0919 31.1105 42.8058C32.0255 41.5198 33.7945 41.2136 35.0756 42.1322C36.3566 43.0508 36.6616 44.8267 35.7466 46.1127C34.8315 47.3988 33.0625 47.7049 31.7815 46.7864ZM51.6678 59.7077C50.6308 59.7077 49.7768 58.8504 49.7768 57.8093C49.7768 56.7683 50.6308 55.9109 51.6678 55.9109C52.7048 55.9109 53.5588 56.7683 53.5588 57.8093C53.5588 58.8504 52.7048 59.7077 51.6678 59.7077ZM54.8399 44.643C54.2909 44.2143 53.9249 43.6632 53.8638 42.9896C53.8028 42.7446 53.6808 41.1524 51.9728 39.8664C50.2038 38.6416 48.5568 39.1928 48.5568 39.1928H48.4958H48.4348C48.4348 39.1928 46.7267 39.1928 45.4457 40.9687C44.2257 42.7446 44.5917 44.2756 44.6527 44.5205V44.5818V44.643C44.7137 44.888 44.8357 46.4802 46.5437 47.7662C48.3128 48.991 49.9598 48.4398 49.9598 48.4398C50.2648 48.3786 50.5698 48.3786 50.8748 48.4398C50.8748 48.4398 50.8748 48.4398 50.9358 48.4398C51.0578 48.4398 51.1798 48.501 51.3628 48.5623H51.4238C51.6068 48.6235 51.7288 48.6848 51.8508 48.8072C52.7048 49.4196 53.0098 50.3994 52.8268 51.318C52.8268 51.4405 52.7658 51.563 52.7048 51.6855V51.7467C52.6438 51.8692 52.5828 52.0529 52.4608 52.1754C52.3388 52.2978 52.2168 52.4203 52.0948 52.5428L52.0338 52.604C51.9118 52.6653 51.8508 52.7878 51.7288 52.849H51.6678C51.5458 52.9102 51.4238 52.9715 51.3018 53.0327C51.1798 53.0939 50.9968 53.094 50.8138 53.1552C50.8138 53.1552 49.1058 53.1552 47.8248 54.9311C46.6047 56.707 46.9707 58.238 47.0317 58.483C47.0927 58.7891 47.0927 59.0953 47.0317 59.4628C47.0317 59.5852 46.9707 59.769 46.9097 59.8914V59.9527C46.8487 60.0752 46.7877 60.2589 46.6657 60.3814C46.5437 60.5038 46.4827 60.6263 46.3607 60.7488C45.5067 61.5449 44.2257 61.6674 43.2497 60.9325C43.1277 60.81 43.0057 60.6875 42.8837 60.5651L42.8227 60.5038C42.7617 60.3814 42.6397 60.2589 42.5787 60.1976V60.1364C42.5177 60.0139 42.4567 59.8914 42.3957 59.7077C42.3347 59.5853 42.3347 59.4015 42.2737 59.2178C42.2737 59.2178 42.2737 57.5031 40.5046 56.2171C38.7356 54.9923 37.2106 55.3598 36.9666 55.421C36.3566 55.5435 35.6856 55.421 35.0756 54.9923C33.9775 54.1962 33.7335 52.6653 34.5265 51.563C35.3196 50.4607 36.8446 50.2157 37.9426 51.0118C38.4916 51.4405 38.8576 51.9917 38.9186 52.6653C38.9796 52.9102 39.0406 54.5024 40.8096 55.7885C42.5787 57.0132 44.2257 56.4621 44.2257 56.4621H44.2867H44.3477C44.5917 56.4008 46.1777 56.3396 47.4587 54.5637C48.7398 52.7878 48.1298 51.1343 48.1298 51.1343V51.0731V51.0118C48.1298 51.0118 48.1298 49.2971 46.3607 48.0111C44.6527 46.7864 43.1887 47.1538 42.8227 47.215C42.1517 47.3375 41.4807 47.215 40.8706 46.8476C40.3216 46.4802 39.9556 45.8678 39.8946 45.2554V45.1942C39.8946 45.0717 39.8336 44.9492 39.8946 44.8267C39.8946 44.3368 40.0776 43.8469 40.3216 43.4795C40.7486 42.8671 41.3587 42.5609 42.0297 42.4997C42.3957 42.4384 43.8597 42.2547 45.0797 40.6013C46.3607 38.8253 45.7507 37.1719 45.7507 37.1719C45.6897 36.8657 45.6897 36.5595 45.7507 36.1921C45.7507 36.0696 45.8117 35.8859 45.8727 35.7634V35.7022C45.9337 35.5184 45.9947 35.396 46.1167 35.2735C46.7267 34.4161 47.8248 34.0487 48.8008 34.3549C49.0448 34.4161 49.3498 34.5386 49.5328 34.7223L49.5938 34.7836C49.7158 34.8448 49.8378 34.9673 49.8988 35.0898L49.9598 35.151C50.0208 35.2735 50.1428 35.3347 50.2038 35.4572C50.2038 35.4572 50.2038 35.4572 50.2038 35.5184C50.3868 35.7634 50.4478 36.0696 50.5088 36.3758C50.5088 36.3758 50.5088 38.0905 52.2778 39.3765C54.0468 40.6013 55.5719 40.2338 55.8159 40.1726C56.4259 40.0501 57.0969 40.1726 57.7069 40.6013C58.8049 41.3974 59.0489 42.9283 58.2559 44.0306C57.4629 45.1329 55.9379 45.4391 54.8399 44.643ZM59.1709 50.277C58.7439 50.8894 57.8899 51.0118 57.2799 50.5832C56.6699 50.1545 56.5479 49.2971 56.9749 48.6848C57.4019 48.0724 58.2559 47.9499 58.8659 48.3786C59.4759 48.8072 59.5979 49.6646 59.1709 50.277Z" fill="#036799"/>
</g>
<defs>
<linearGradient id="paint0_linear_2070_615" x1="44.4936" y1="42.322" x2="95.3607" y2="33.7605" gradientUnits="userSpaceOnUse">
<stop stop-color="#E88F26"/>
<stop offset="1" stop-color="#EB2127"/>
</linearGradient>
<linearGradient id="paint1_linear_2070_615" x1="50.0763" y1="41.172" x2="74.698" y2="86.6733" gradientUnits="userSpaceOnUse">
<stop stop-color="#E88F26"/>
<stop offset="1" stop-color="#EB2127"/>
</linearGradient>
<linearGradient id="paint2_linear_2070_615" x1="51.9473" y1="47.6935" x2="19.8155" y2="88.1979" gradientUnits="userSpaceOnUse">
<stop stop-color="#E88F26"/>
<stop offset="1" stop-color="#EB2127"/>
</linearGradient>
<linearGradient id="paint3_linear_2070_615" x1="44.8992" y1="55.351" x2="-0.676366" y2="31.1051" gradientUnits="userSpaceOnUse">
<stop stop-color="#E88F26"/>
<stop offset="1" stop-color="#EB2127"/>
</linearGradient>
<linearGradient id="paint4_linear_2070_615" x1="37.5813" y1="49.662" x2="51.0269" y2="-0.3254" gradientUnits="userSpaceOnUse">
<stop stop-color="#E88F26"/>
<stop offset="1" stop-color="#EB2127"/>
</linearGradient>
<clipPath id="clip0_2070_615">
<rect width="323" height="88" fill="white"/>
</clipPath>
</defs>
</svg>
