<svg xmlns="http://www.w3.org/2000/svg" width="25" height="24" viewBox="0 0 25 24" fill="none">
  <path fill-rule="evenodd" clip-rule="evenodd" d="M4.93057 6.51192C5.20014 6.19743 5.67361 6.161 5.98811 6.43057L12.5 12.0122L19.0119 6.43057C19.3264 6.161 19.7999 6.19743 20.0695 6.51192C20.339 6.82641 20.3026 7.29989 19.9881 7.56946L12.9881 13.5695C12.7072 13.8102 12.2928 13.8102 12.0119 13.5695L5.01192 7.56946C4.69743 7.29989 4.661 6.82641 4.93057 6.51192ZM4.93057 10.5119C5.20014 10.1974 5.67361 10.161 5.98811 10.4306L12.5 16.0122L19.0119 10.4306C19.3264 10.161 19.7999 10.1974 20.0695 10.5119C20.339 10.8264 20.3026 11.2999 19.9881 11.5695L12.9881 17.5695C12.7072 17.8102 12.2928 17.8102 12.0119 17.5695L5.01192 11.5695C4.69743 11.2999 4.661 10.8264 4.93057 10.5119Z" fill="#036799"/>
</svg>