<svg xmlns="http://www.w3.org/2000/svg" width="20" height="20" viewBox="0 0 20 20" fill="none">
  <path fill-rule="evenodd" clip-rule="evenodd" d="M3.69247 5.42658C3.91711 5.1645 4.31167 5.13415 4.57375 5.35879L10.0003 10.0102L15.4269 5.35879C15.689 5.13415 16.0836 5.1645 16.3082 5.42658C16.5328 5.68866 16.5025 6.08322 16.2404 6.30786L10.4071 11.3079C10.173 11.5085 9.82765 11.5085 9.59359 11.3079L3.76026 6.30786C3.49818 6.08322 3.46783 5.68866 3.69247 5.42658ZM3.69247 8.75991C3.91711 8.49783 4.31167 8.46748 4.57375 8.69212L10.0003 13.3435L15.4269 8.69212C15.689 8.46748 16.0836 8.49783 16.3082 8.75991C16.5328 9.02199 16.5025 9.41655 16.2404 9.64119L10.4071 14.6412C10.173 14.8418 9.82765 14.8418 9.59359 14.6412L3.76026 9.64119C3.49818 9.41655 3.46783 9.02199 3.69247 8.75991Z" fill="#1C274C"/>
</svg>