<svg width="26" height="26" viewBox="0 0 26 26" fill="none" xmlns="http://www.w3.org/2000/svg">
<path d="M15.2204 6.50002C16.2786 6.70647 17.251 7.22397 18.0133 7.98628C18.7756 8.7486 19.2931 9.72106 19.4996 10.7792M15.2204 2.16669C17.4188 2.41091 19.4688 3.39538 21.0339 4.95845C22.5989 6.52151 23.5859 8.57028 23.8329 10.7684M11.0788 15.0183C9.77711 13.7166 8.74926 12.2448 7.99526 10.6744C7.9304 10.5393 7.89798 10.4717 7.87306 10.3863C7.78453 10.0825 7.84812 9.7096 8.0323 9.45239C8.08413 9.38001 8.14605 9.31809 8.26989 9.19425C8.64863 8.81551 8.838 8.62614 8.9618 8.43571C9.42872 7.71758 9.42872 6.79179 8.96181 6.07365C8.838 5.88323 8.64863 5.69386 8.26989 5.31512L8.05878 5.10401C7.48305 4.52828 7.19518 4.24042 6.88602 4.08404C6.27116 3.77305 5.54504 3.77305 4.93018 4.08404C4.62102 4.24042 4.33316 4.52828 3.75743 5.10401L3.58666 5.27478C3.0129 5.84854 2.72602 6.13542 2.50692 6.52545C2.26379 6.95825 2.08899 7.63045 2.09046 8.12686C2.09179 8.57422 2.17857 8.87996 2.35213 9.49144C3.28485 12.7776 5.0447 15.8785 7.63167 18.4655C10.2187 21.0525 13.3195 22.8123 16.6057 23.745C17.2172 23.9186 17.5229 24.0054 17.9703 24.0067C18.4667 24.0082 19.1389 23.8334 19.5717 23.5902C19.9617 23.3711 20.2486 23.0843 20.8224 22.5105L20.9932 22.3397C21.5689 21.764 21.8567 21.4761 22.0131 21.167C22.3241 20.5521 22.3241 19.826 22.0131 19.2111C21.8567 18.902 21.5689 18.6141 20.9932 18.0384L20.782 17.8273C20.4033 17.4485 20.2139 17.2592 20.0235 17.1354C19.3054 16.6684 18.3796 16.6684 17.6615 17.1354C17.471 17.2592 17.2817 17.4485 16.9029 17.8273C16.7791 17.9511 16.7172 18.013 16.6448 18.0649C16.3876 18.249 16.0146 18.3126 15.7109 18.2241C15.6254 18.1992 15.5579 18.1668 15.4228 18.1019C13.8524 17.3479 12.3805 16.3201 11.0788 15.0183Z" stroke="white" stroke-width="2" stroke-linecap="round" stroke-linejoin="round"/>
</svg>
