<svg width="66" height="66" viewBox="0 0 66 66" fill="none" xmlns="http://www.w3.org/2000/svg">
<g filter="url(#filter0_d_21_522)">
<path d="M57.9986 33.0007C57.9986 45.627 48.6386 56.0652 36.4801 57.7596C35.3429 57.9179 34.1797 58 32.9993 58C31.636 58 30.2987 57.8906 28.9944 57.6804C17.0922 55.7644 8 45.4428 8 32.9993C8 19.1925 19.1925 8 32.9993 8C46.806 8 57.9986 19.1925 57.9986 32.9993V33.0007Z" fill="white"/>
<path d="M26.8421 41.2106V21.2501L26.0135 20.6952C22.4905 22.1095 20 25.5503 20 29.579V36.4211C20 41.7114 24.2886 46 29.5789 46H36.4211C39.6519 46 42.4989 44.3935 44.2327 41.942V41.2106H26.8421Z" fill="#2962FF"/>
<path d="M36.4212 20H29.579C28.3167 20 27.1152 20.2504 26.0116 20.6938C23.7311 22.9079 22.0527 26.5192 22.0527 29.5789C22.0527 34.2117 22.6932 36.9239 24.5925 39.5732C24.7403 39.7792 24.8368 40.02 24.8498 40.2725C24.8792 40.8438 24.7615 41.8906 23.7318 42.8328C23.6209 42.934 23.6914 43.1195 23.8413 43.1256C24.4858 43.1537 25.7865 43.116 27.1234 42.5256C27.5045 42.3573 27.9383 42.3867 28.3064 42.5824C30.5732 43.7859 33.2279 43.9474 35.7369 43.9474C38.9363 43.9474 42.1268 43.2358 44.2328 41.9522C45.3419 40.3888 46.0001 38.4833 46.0001 36.421V29.5789C46.0001 24.2886 41.7115 20 36.4212 20Z" fill="white"/>
<path d="M41.7236 35.0528C40.3094 35.0528 39.1578 33.9013 39.1578 32.487C39.1578 31.0727 40.3094 29.9212 41.7236 29.9212C43.1379 29.9212 44.2894 31.0727 44.2894 32.487C44.2894 33.9013 43.1379 35.0528 41.7236 35.0528ZM41.7236 30.9475C40.8752 30.9475 40.1842 31.6386 40.1842 32.487C40.1842 33.3354 40.8752 34.0265 41.7236 34.0265C42.572 34.0265 43.2631 33.3354 43.2631 32.487C43.2631 31.6386 42.572 30.9475 41.7236 30.9475Z" fill="#2962FF"/>
<path d="M38.1315 35.0527H37.4473C37.2585 35.0527 37.1052 34.8995 37.1052 34.7106V28.8948H38.1315V35.0527Z" fill="#2962FF"/>
<path d="M35.0525 30.0923V30.4474C34.6222 30.1217 34.0926 29.9212 33.5131 29.9212C32.0988 29.9212 30.9473 31.0727 30.9473 32.487C30.9473 33.9013 32.0988 35.0528 33.5131 35.0528C34.0926 35.0528 34.6222 34.8523 35.0525 34.5266V34.7107C35.0525 34.8995 35.2058 35.0528 35.3946 35.0528H36.0788V30.0923H35.0525ZM33.5131 34.0265C32.6646 34.0265 31.9736 33.3354 31.9736 32.487C31.9736 31.6386 32.6646 30.9475 33.5131 30.9475C34.3615 30.9475 35.0525 31.6386 35.0525 32.487C35.0525 33.3354 34.3615 34.0265 33.5131 34.0265Z" fill="#2962FF"/>
<path d="M31.1185 28.8948H25.6448V29.9212H29.2855L25.4738 34.3685H25.4916C25.3801 34.5129 25.3027 34.6853 25.3027 34.8817V35.0527H30.4343C30.6232 35.0527 30.7764 34.8995 30.7764 34.7106V34.0264H27.1357L30.9475 29.579H30.9297C31.0412 29.4347 31.1185 29.2623 31.1185 29.0659V28.8948Z" fill="#2962FF"/>
</g>
<defs>
<filter id="filter0_d_21_522" x="0" y="0" width="65.9985" height="66" filterUnits="userSpaceOnUse" color-interpolation-filters="sRGB">
<feFlood flood-opacity="0" result="BackgroundImageFix"/>
<feColorMatrix in="SourceAlpha" type="matrix" values="0 0 0 0 0 0 0 0 0 0 0 0 0 0 0 0 0 0 127 0" result="hardAlpha"/>
<feOffset/>
<feGaussianBlur stdDeviation="4"/>
<feComposite in2="hardAlpha" operator="out"/>
<feColorMatrix type="matrix" values="0 0 0 0 0 0 0 0 0 0 0 0 0 0 0 0 0 0 0.25 0"/>
<feBlend mode="normal" in2="BackgroundImageFix" result="effect1_dropShadow_21_522"/>
<feBlend mode="normal" in="SourceGraphic" in2="effect1_dropShadow_21_522" result="shape"/>
</filter>
</defs>
</svg>
