<svg width="374" height="341" viewBox="0 0 374 341" fill="none" xmlns="http://www.w3.org/2000/svg">
<g opacity="0.1">
<path d="M333.257 211.66C341.351 204.067 353.015 191.253 362.06 172.507C368.725 158.27 371.582 145.219 373.01 135.728C359.442 119.117 285.411 35.1168 163.772 105.355C173.294 103.456 227.329 94.2019 277.08 129.558C318.023 158.507 330.163 199.796 333.257 211.66Z" fill="white"/>
<path d="M201.383 325.563C211.142 330.783 227.091 337.664 247.801 340.037C263.511 341.698 276.842 340.275 286.363 338.376C297.789 320.342 353.729 223.528 248.039 130.985C252.8 139.29 278.984 187.223 261.369 245.596C247.087 294.003 211.618 318.919 201.383 325.563Z" fill="white"/>
<path d="M52.1309 256.035C51.1788 266.951 51.1788 284.273 57.1298 304.443C61.6526 319.629 68.3177 331.256 73.7926 339.087C94.9783 342.409 206.381 355.222 249.467 221.866C243.516 229.696 209.952 272.646 149.252 279.527C99.263 285.222 62.3667 262.68 52.1309 256.035Z" fill="white"/>
<path d="M78.0774 79.2554C67.1276 80.2045 49.9886 83.2893 31.1834 92.7809C17.139 99.8996 6.90319 108.679 0 115.323C0.476082 136.679 7.61731 248.206 146.871 266.951C138.302 262.68 89.7415 237.053 72.1264 178.917C57.6059 130.747 73.3166 90.6453 78.0774 79.2554Z" fill="white"/>
<path d="M256.608 67.6275C253.038 57.1868 246.372 41.2884 232.804 25.1527C222.568 13.2882 211.856 5.22037 203.763 0C183.054 5.22037 75.697 37.4917 88.7893 177.018C91.1697 167.526 104.976 114.848 157.821 84.4751C201.859 59.3224 244.706 65.4919 256.608 67.6275Z" fill="white"/>
</g>
</svg>
